<?xml version="1.0" encoding="UTF-8" standalone="no"?>
<svg
   xmlns:dc="http://purl.org/dc/elements/1.1/"
   xmlns:cc="http://creativecommons.org/ns#"
   xmlns:rdf="http://www.w3.org/1999/02/22-rdf-syntax-ns#"
   xmlns:svg="http://www.w3.org/2000/svg"
   xmlns="http://www.w3.org/2000/svg"
   xmlns:sodipodi="http://sodipodi.sourceforge.net/DTD/sodipodi-0.dtd"
   xmlns:inkscape="http://www.inkscape.org/namespaces/inkscape"
   width="1024"
   height="1024"
   viewBox="0 0 270.93332 270.93334"
   version="1.1"
   id="svg8"
   inkscape:version="1.0 (6e3e5246a0, 2020-05-07)"
   sodipodi:docname="webcam-icon.svg">
  <defs
     id="defs2">
    <style
       id="style977"
       type="text/css">
   
    .fil0 {fill:black}
   
  </style>
  </defs>
  <sodipodi:namedview
     id="base"
     pagecolor="#ffffff"
     bordercolor="#666666"
     borderopacity="1.0"
     inkscape:pageopacity="0.0"
     inkscape:pageshadow="2"
     inkscape:zoom="0.40176991"
     inkscape:cx="1215.9716"
     inkscape:cy="538.38616"
     inkscape:document-units="mm"
     inkscape:current-layer="layer1"
     inkscape:document-rotation="0"
     showgrid="false"
     units="px"
     inkscape:showpageshadow="false"
     inkscape:window-width="1920"
     inkscape:window-height="1043"
     inkscape:window-x="0"
     inkscape:window-y="0"
     inkscape:window-maximized="1"
     inkscape:snap-nodes="false"
     inkscape:snap-bbox="true"
     inkscape:snap-page="true"
     inkscape:snap-to-guides="true"
     inkscape:bbox-nodes="true">
    <inkscape:grid
       type="xygrid"
       id="grid10" />
  </sodipodi:namedview>
  <metadata
     id="metadata5">
    <rdf:RDF>
      <cc:Work
         rdf:about="">
        <dc:format>image/svg+xml</dc:format>
        <dc:type
           rdf:resource="http://purl.org/dc/dcmitype/StillImage" />
        <dc:title></dc:title>
      </cc:Work>
    </rdf:RDF>
  </metadata>
  <g
     inkscape:label="Capa 1"
     inkscape:groupmode="layer"
     id="layer1">
    <path
       sodipodi:nodetypes="ccssssc"
       id="path99"
       style="fill:#424964;fill-opacity:1;fill-rule:nonzero;stroke:none;stroke-width:0.0386491"
       d="M 244.30606,218.20884 H 26.699864 V 51.769252 c 0,-6.611344 4.106584,-11.90296 11.667883,-11.90296 H 232.8489 c 7.56411,0 11.45716,4.043619 11.45716,11.410056 V 218.20884"
       inkscape:export-filename="/home/jerson/Descargas/icon-1024x1024.png"
       inkscape:export-xdpi="96"
       inkscape:export-ydpi="96" />
    <path
       id="path101"
       style="fill:#b9d2d8;fill-opacity:1;fill-rule:nonzero;stroke:none;stroke-width:0.0352296"
       d="M 225.68907,202.33992 H 45.375468 V 58.215267 H 225.68907 V 202.33992"
       inkscape:export-filename="/home/jerson/Descargas/icon-1024x1024.png"
       inkscape:export-xdpi="96"
       inkscape:export-ydpi="96" />
    <path
       id="path103"
       style="fill:#969a9a;fill-opacity:1;fill-rule:nonzero;stroke:none;stroke-width:0.0386491"
       d="M 244.28654,241.25405 26.677537,240.45284 c -5.295878,-0.0185 -10.20212,-3.42235 -12.946689,-8.98324 l 243.544232,0.89155 -3.4e-4,4.3e-4 c -2.77038,5.5412 -7.69198,8.91088 -12.9882,8.89247"
       inkscape:export-filename="/home/jerson/Descargas/icon-1024x1024.png"
       inkscape:export-xdpi="96"
       inkscape:export-ydpi="96" />
    <path
       id="path105"
       style="fill:#b4bbbb;fill-opacity:1;fill-rule:nonzero;stroke:none;stroke-width:0.0386491"
       d="M 255.54281,233.85137 H 15.463125 c -1.131948,0 -2.049355,-1.12623 -2.049355,-2.51581 v -11.04984 c 0,-1.38958 0.917407,-2.51581 2.049355,-2.51581 H 255.54281 c 1.13194,0 2.04936,1.12623 2.04936,2.51581 v 11.04984 c 0,1.38958 -0.91742,2.51581 -2.04936,2.51581"
       inkscape:export-filename="/home/jerson/Descargas/icon-1024x1024.png"
       inkscape:export-xdpi="96"
       inkscape:export-ydpi="96" />
    <path
       id="path107"
       style="fill:#969a9a;fill-opacity:1;fill-rule:nonzero;stroke:none;stroke-width:0.0386491"
       d="m 153.32624,228.18513 h -35.64655 c -1.2795,0 -2.31655,-1.27353 -2.31655,-2.84468 0,-1.57072 1.03705,-2.84425 2.31655,-2.84425 h 35.64655 c 1.27951,0 2.31655,1.27353 2.31655,2.84425 0,1.57115 -1.03704,2.84468 -2.31655,2.84468"
       inkscape:export-filename="/home/jerson/Descargas/icon-1024x1024.png"
       inkscape:export-xdpi="96"
       inkscape:export-ydpi="96" />
    <path
       sodipodi:nodetypes="sssssccccccccsscc"
       class="fil0"
       d="m 110.00036,74.388332 c 15.64994,0 28.35839,12.708436 28.35839,28.338388 0,15.6785 -12.70845,28.35838 -28.35839,28.35838 -15.658497,0 -28.366935,-12.67988 -28.366935,-28.35838 0,-15.629952 12.708438,-28.338388 28.366935,-28.338388 z m 39.92448,83.535828 12.65703,-26.88191 c 5.08339,-10.91497 21.75856,-3.19851 16.64662,7.7907 l -16.95791,36.08054 c -2.76443,5.2233 -8.30188,7.7193 -13.62514,4.23518 l -8.11055,-5.3718 v 29.04091 H 77.03103 L 76.739587,166.74431 C 76.615428,151.37759 91.99437,136.31696 107.36159,136.31696 h 5.2747 c 16.94078,0 27.98509,15.31985 37.28855,21.6072 z"
       id="path981"
       style="clip-rule:evenodd;opacity:0.0941561;fill-rule:evenodd;stroke-width:0.285583;image-rendering:optimizeQuality;shape-rendering:geometricPrecision;text-rendering:geometricPrecision"
       inkscape:export-filename="/home/jerson/Descargas/icon-1024x1024.png"
       inkscape:export-xdpi="96"
       inkscape:export-ydpi="96" />
    <path
       id="path49"
       style="fill:#ffffff;fill-opacity:1;fill-rule:nonzero;stroke:none;stroke-width:0.00584873"
       d="m 132.172,49.309802 c 0,1.839777 1.49066,3.33097 3.33097,3.33097 1.8392,0 3.33097,-1.491193 3.33097,-3.33097 0,-1.839196 -1.49177,-3.329861 -3.33097,-3.329861 -1.84031,0 -3.33097,1.490665 -3.33097,3.329861"
       inkscape:export-filename="/home/jerson/Descargas/icon-1024x1024.png"
       inkscape:export-xdpi="96"
       inkscape:export-ydpi="96" />
    <rect
       style="opacity:0;fill:#000000;fill-opacity:1;stroke-width:0.379495"
       id="rect1036"
       width="270.93332"
       height="270.93332"
       x="0"
       y="0"
       ry="3.254797"
       inkscape:export-filename="/home/jerson/Descargas/icon-1024x1024.png"
       inkscape:export-xdpi="96"
       inkscape:export-ydpi="96" />
  </g>
</svg>
